<svg width="33" height="30" viewBox="0 0 33 30" fill="none" xmlns="http://www.w3.org/2000/svg">
    <path d="M18.2083 22V23.75C18.2083 25.1424 17.6684 26.4777 16.7073 27.4623C15.7461 28.4469 14.4426 29 13.0833 29H6.25C4.89077 29 3.5872 28.4469 2.62608 27.4623C1.66495 26.4777 1.125 25.1424 1.125 23.75L1.125 6.25C1.125 4.85761 1.66495 3.52226 2.62608 2.53769C3.5872 1.55312 4.89077 1 6.25 1L13.0833 1C14.4426 1 15.7461 1.55312 16.7073 2.53769C17.6684 3.52226 18.2083 4.85761 18.2083 6.25V8M25.0417 22L31.875 15L25.0417 22ZM31.875 15L25.0417 8L31.875 15ZM31.875 15L7.95833 15L31.875 15Z" stroke="#FF0000" stroke-width="2" stroke-linecap="round" stroke-linejoin="round"/>
    </svg>
