<svg width="64" height="64" viewBox="0 0 64 64" fill="none" xmlns="http://www.w3.org/2000/svg">
<circle cx="32" cy="32" r="32" fill="#3C8158"/>
<path d="M38.0297 36.9076C37.7607 36.8196 36.0599 36.053 37.1227 32.8224H37.1074C39.8777 29.9691 41.9948 25.3779 41.9948 20.8578C41.9948 13.9075 37.3731 10.2639 32.0017 10.2639C26.627 10.2639 22.0307 13.9058 22.0307 20.8578C22.0307 25.3965 24.1359 30.0064 26.9231 32.8528C28.0096 35.7027 26.0668 36.7604 25.6607 36.9093C20.0354 38.9435 13.4354 42.6513 13.4354 46.3118V47.6842C13.4354 52.6715 23.1053 53.8053 32.0542 53.8053C41.0167 53.8053 50.5647 52.6715 50.5647 47.6842V46.3118C50.5647 42.5413 43.9325 38.8622 38.0297 36.9076Z" fill="white"/>
</svg>
