<svg width="33" height="29" viewBox="0 0 33 29" fill="none" xmlns="http://www.w3.org/2000/svg">
    <path d="M19.4412 0.942333C18.4986 0.327461 17.3968 0 16.2706 0C15.1444 0 14.0426 0.327461 13.1 0.942333L0.570458 9.11471C0.392222 9.23082 0.249483 9.39368 0.157902 9.5854C0.0663202 9.77713 0.0294346 9.99032 0.0512919 10.2016C0.0479896 10.2385 0.0464428 10.2755 0.0466565 10.3126V19.5626C0.0466565 19.8692 0.16875 20.1633 0.386077 20.3802C0.603404 20.597 0.898163 20.7188 1.20551 20.7188C1.51286 20.7188 1.80762 20.597 2.02494 20.3802C2.24227 20.1633 2.36436 19.8692 2.36436 19.5626V12.2643L4.68207 13.8299V22.3399C4.68207 22.6174 4.78173 22.8833 4.9602 23.0915L4.96483 23.0984L4.97874 23.1146L5.02509 23.1655L5.1827 23.3366C5.31944 23.48 5.51645 23.6788 5.7714 23.9147C6.28129 24.3841 7.02991 25.0039 7.99408 25.626C9.91778 26.8631 12.7431 28.1235 16.2706 28.1235C19.7982 28.1235 22.6211 26.8631 24.5471 25.626C25.5113 25.0039 26.2599 24.3841 26.7698 23.9147C27.029 23.6755 27.278 23.4255 27.5161 23.1655L27.5625 23.1146L27.5764 23.0984L27.581 23.0938L27.5833 23.0891C27.761 22.8806 27.8587 22.6159 27.8592 22.3422V13.8276L31.9847 11.041C32.1511 10.9429 32.2869 10.8005 32.377 10.6298C32.467 10.4591 32.5077 10.2668 32.4946 10.0744C32.4931 9.88353 32.4443 9.696 32.3524 9.52855C32.2606 9.36109 32.1287 9.21892 31.9685 9.11471L19.4412 0.942333ZM25.5414 15.3908V21.882C24.8548 22.5568 24.1007 23.1597 23.291 23.6811C21.6222 24.7518 19.2326 25.8086 16.2706 25.8086C13.3086 25.8086 10.9167 24.7518 9.25028 23.6811C8.44041 23.1589 7.6863 22.5553 6.99978 21.8797V15.3931L13.0235 19.4608C13.9822 20.108 15.1131 20.4539 16.2706 20.4539C17.4281 20.4539 18.5591 20.108 19.5177 19.4608L25.5414 15.3908ZM5.84093 22.3399L4.9602 23.0891L5.84093 22.3376V22.3399ZM14.3678 2.8779C14.9335 2.50878 15.5947 2.31219 16.2706 2.31219C16.9465 2.31219 17.6078 2.50878 18.1735 2.8779L29.2428 10.0813L18.2198 17.5461C17.6444 17.9348 16.9655 18.1426 16.2706 18.1426C15.5757 18.1426 14.8968 17.9348 14.3214 17.5461L3.29608 10.0998L14.3701 2.8779H14.3678Z" fill="#868492"/>
    </svg>
