<svg width="20" height="35" viewBox="0 0 20 35" fill="#868492" xmlns="http://www.w3.org/2000/svg">
    <path d="M8.17935 18.9286C5.82476 18.5344 3.70766 17.2959 2.24598 15.4576C0.784292 13.6193 0.0842438 11.3147 0.284029 8.99887C0.483814 6.68303 1.56891 4.52419 3.32512 2.94852C5.08133 1.37285 7.38102 0.494853 9.77022 0.487858C12.1651 0.485732 14.4733 1.35936 16.2368 2.9354C18.0004 4.51145 19.0904 6.67474 19.2907 8.99608C19.4909 11.3174 18.7868 13.6272 17.3179 15.467C15.8491 17.3069 13.7228 18.5425 11.3611 18.9286L11.3611 34.5314L8.17935 34.5314V31.4365L1.8159 31.4365V28.3417L8.17935 28.3417V25.2468L1.8159 25.2468V22.1519L8.17935 22.1519L8.17935 18.9286ZM3.40676 9.77246C3.40676 11.4141 4.07719 12.9885 5.27057 14.1493C6.46395 15.3101 8.08252 15.9622 9.77022 15.9622C11.4579 15.9622 13.0765 15.3101 14.2699 14.1493C15.4632 12.9885 16.1337 11.4141 16.1337 9.77246C16.1337 8.13084 15.4632 6.55645 14.2699 5.39565C13.0765 4.23485 11.4579 3.58272 9.77022 3.58272C8.08252 3.58272 6.46395 4.23485 5.27057 5.39565C4.07719 6.55645 3.40676 8.13084 3.40676 9.77246Z" fill="#868492"/>
</svg>
