<svg width="29" height="24" viewBox="0 0 29 24" fill="#868492" xmlns="http://www.w3.org/2000/svg">
    <path d="M1.6405 0.340576H26.9381C27.3108 0.340576 27.6683 0.475371 27.9318 0.715308C28.1954 0.955244 28.3435 1.28067 28.3435 1.61999V22.0906C28.3435 22.4299 28.1954 22.7554 27.9318 22.9953C27.6683 23.2352 27.3108 23.37 26.9381 23.37H1.6405C1.26776 23.37 0.910282 23.2352 0.646715 22.9953C0.383147 22.7554 0.235077 22.4299 0.235077 22.0906V1.61999C0.235077 1.28067 0.383147 0.955244 0.646715 0.715308C0.910282 0.475371 1.26776 0.340576 1.6405 0.340576ZM25.5326 5.76273L14.3905 14.8466L3.04592 5.73459V20.8112H25.5326V5.76273ZM3.76409 2.8994L14.375 11.4229L24.8327 2.8994H3.76409Z" fill="#868492"/>
</svg>
