<svg width="32" height="30" viewBox="0 0 32 30" fill="none" xmlns="http://www.w3.org/2000/svg">
    <path d="M13.9759 7.51298L9.23969 2.43678C8.69369 1.85182 7.69269 1.85442 7.0585 2.44458L3.16372 6.06746C2.00453 7.1451 1.67273 8.7453 2.34332 10.0283C6.34957 17.7303 13.0393 23.9506 21.3286 27.6813C22.709 28.3039 24.431 27.9959 25.5902 26.9182L29.5214 23.2615C30.1584 22.6701 30.1598 21.7354 29.5242 21.2285L24.0362 16.8542C23.4622 16.3966 22.5704 16.4564 21.995 16.992L20.0854 18.7677C19.9877 18.8628 19.859 18.9256 19.7191 18.9462C19.5793 18.9669 19.436 18.9444 19.3112 18.8821C16.1899 17.2131 13.6007 14.8058 11.8073 11.9054C11.7401 11.7894 11.7158 11.6561 11.738 11.526C11.7603 11.396 11.8279 11.2762 11.9305 11.1853L13.8345 9.41606C14.4113 8.8779 14.4743 8.04595 13.9759 7.51168V7.51298Z" stroke="#868492" stroke-width="3" stroke-linecap="round" stroke-linejoin="round"/>
    </svg>
