<svg width="30" height="30" viewBox="0 0 30 30" fill="none" xmlns="http://www.w3.org/2000/svg">
    <path d="M15.2974 29.6556C7.30196 29.6556 0.820801 23.1722 0.820801 15.1741C0.820801 7.17603 7.30196 0.692688 15.2974 0.692688C23.2928 0.692688 29.774 7.17603 29.774 15.1741C29.774 23.1722 23.2928 29.6556 15.2974 29.6556ZM8.07791 24.2337C10.1271 25.8726 12.6738 26.7634 15.2974 26.7593C18.0368 26.7632 20.6883 25.792 22.7774 24.0194C21.8346 23.0517 20.7073 22.2829 19.4623 21.7585C18.2173 21.2342 16.8798 20.965 15.529 20.9667C14.1285 20.9651 12.743 21.2547 11.4603 21.8171C10.1776 22.3795 9.02581 23.2024 8.07791 24.2337ZM6.05553 22.1542C7.27222 20.8625 8.74046 19.8338 10.3698 19.1315C11.999 18.4291 13.7549 18.068 15.529 18.0704C17.2396 18.0682 18.9338 18.404 20.5144 19.0586C22.0949 19.7132 23.5306 20.6736 24.739 21.8848C25.9783 20.14 26.7102 18.0858 26.8534 15.9502C26.9966 13.8146 26.5456 11.681 25.5504 9.78624C24.5552 7.89144 23.0547 6.30949 21.2154 5.21588C19.376 4.12228 17.2698 3.55978 15.1303 3.59079C12.9909 3.6218 10.9018 4.24511 9.09492 5.39156C7.28804 6.53802 5.83398 8.16279 4.89406 10.0856C3.95415 12.0085 3.56512 14.1542 3.77014 16.2848C3.97516 18.4153 4.76621 20.4474 6.05553 22.1556V22.1542ZM15.2974 16.6223C13.7616 16.6223 12.2887 16.012 11.2028 14.9257C10.1168 13.8393 9.50675 12.366 9.50675 10.8297C9.50675 9.29341 10.1168 7.82004 11.2028 6.73372C12.2887 5.64741 13.7616 5.03712 15.2974 5.03712C16.8331 5.03712 18.306 5.64741 19.392 6.73372C20.4779 7.82004 21.088 9.29341 21.088 10.8297C21.088 12.366 20.4779 13.8393 19.392 14.9257C18.306 16.012 16.8331 16.6223 15.2974 16.6223ZM15.2974 13.726C16.0653 13.726 16.8017 13.4208 17.3447 12.8777C17.8876 12.3345 18.1927 11.5978 18.1927 10.8297C18.1927 10.0615 17.8876 9.32487 17.3447 8.78171C16.8017 8.23855 16.0653 7.9334 15.2974 7.9334C14.5295 7.9334 13.7931 8.23855 13.2501 8.78171C12.7071 9.32487 12.4021 10.0615 12.4021 10.8297C12.4021 11.5978 12.7071 12.3345 13.2501 12.8777C13.7931 13.4208 14.5295 13.726 15.2974 13.726Z" fill="#868492"/>
    </svg>
