<svg width="141" height="27" viewBox="0 0 141 27" fill="none" xmlns="http://www.w3.org/2000/svg">
    <path d="M17 10.568C17 9.976 16.92 9.4 16.76 8.84C16.616 8.28 16.368 7.784 16.016 7.352C15.68 6.904 15.232 6.544 14.672 6.272C14.112 6 13.432 5.864 12.632 5.864C11.224 5.864 10.12 6.272 9.32 7.088C8.52 7.888 7.992 9.048 7.736 10.568H17ZM7.64 14.888C7.88 16.968 8.512 18.48 9.536 19.424C10.56 20.352 11.88 20.816 13.496 20.816C14.36 20.816 15.104 20.712 15.728 20.504C16.352 20.296 16.904 20.064 17.384 19.808C17.88 19.552 18.328 19.32 18.728 19.112C19.144 18.904 19.576 18.8 20.024 18.8C20.616 18.8 21.064 19.016 21.368 19.448L23.528 22.112C22.76 22.992 21.928 23.712 21.032 24.272C20.152 24.816 19.24 25.248 18.296 25.568C17.368 25.872 16.432 26.08 15.488 26.192C14.56 26.32 13.672 26.384 12.824 26.384C11.08 26.384 9.44 26.104 7.904 25.544C6.384 24.968 5.048 24.12 3.896 23C2.76 21.88 1.856 20.488 1.184 18.824C0.528 17.16 0.2 15.224 0.2 13.016C0.2 11.352 0.48 9.776 1.04 8.288C1.616 6.8 2.432 5.496 3.488 4.376C4.56 3.256 5.848 2.368 7.352 1.712C8.872 1.056 10.584 0.727998 12.488 0.727998C14.136 0.727998 15.64 0.983998 17 1.496C18.376 2.008 19.552 2.752 20.528 3.728C21.52 4.704 22.288 5.904 22.832 7.328C23.392 8.736 23.672 10.336 23.672 12.128C23.672 12.688 23.648 13.144 23.6 13.496C23.552 13.848 23.464 14.128 23.336 14.336C23.208 14.544 23.032 14.688 22.808 14.768C22.6 14.848 22.328 14.888 21.992 14.888H7.64ZM48.3811 26H41.2291C40.7011 26 40.2691 25.872 39.9331 25.616C39.6131 25.36 39.3571 25.056 39.1651 24.704L34.7251 17.072C34.6451 17.344 34.5491 17.6 34.4371 17.84C34.3251 18.08 34.2051 18.304 34.0771 18.512L30.4291 24.704C30.2051 25.024 29.9411 25.32 29.6371 25.592C29.3331 25.864 28.9411 26 28.4611 26H21.8371L30.1891 13.136L22.1731 1.112H29.3251C29.8531 1.112 30.2371 1.184 30.4771 1.328C30.7331 1.456 30.9571 1.68 31.1491 2L35.5891 9.368C35.6851 9.08 35.8051 8.8 35.9491 8.528C36.0931 8.24 36.2531 7.952 36.4291 7.664L39.5971 2.12C39.8211 1.768 40.0531 1.512 40.2931 1.352C40.5491 1.192 40.8611 1.112 41.2291 1.112H48.0451L40.0291 12.8L48.3811 26ZM61.1225 15.872C59.6345 15.936 58.4105 16.064 57.4505 16.256C56.4905 16.448 55.7305 16.688 55.1705 16.976C54.6105 17.264 54.2185 17.592 53.9945 17.96C53.7865 18.328 53.6825 18.728 53.6825 19.16C53.6825 20.008 53.9145 20.608 54.3785 20.96C54.8425 21.296 55.5225 21.464 56.4185 21.464C57.3785 21.464 58.2185 21.296 58.9385 20.96C59.6585 20.624 60.3865 20.08 61.1225 19.328V15.872ZM47.7305 4.568C49.2345 3.24 50.8985 2.256 52.7225 1.616C54.5625 0.959999 56.5305 0.631999 58.6265 0.631999C60.1305 0.631999 61.4825 0.879999 62.6825 1.376C63.8985 1.856 64.9225 2.536 65.7545 3.416C66.6025 4.28 67.2505 5.312 67.6985 6.512C68.1465 7.712 68.3705 9.024 68.3705 10.448V26H64.9625C64.2585 26 63.7225 25.904 63.3545 25.712C63.0025 25.52 62.7065 25.12 62.4665 24.512L61.9385 23.144C61.3145 23.672 60.7145 24.136 60.1385 24.536C59.5625 24.936 58.9625 25.28 58.3385 25.568C57.7305 25.84 57.0745 26.04 56.3705 26.168C55.6825 26.312 54.9145 26.384 54.0665 26.384C52.9305 26.384 51.8985 26.24 50.9705 25.952C50.0425 25.648 49.2505 25.208 48.5945 24.632C47.9545 24.056 47.4585 23.344 47.1065 22.496C46.7545 21.632 46.5785 20.64 46.5785 19.52C46.5785 18.624 46.8025 17.72 47.2505 16.808C47.6985 15.88 48.4745 15.04 49.5785 14.288C50.6825 13.52 52.1705 12.88 54.0425 12.368C55.9145 11.856 58.2745 11.568 61.1225 11.504V10.448C61.1225 8.992 60.8185 7.944 60.2105 7.304C59.6185 6.648 58.7705 6.32 57.6665 6.32C56.7865 6.32 56.0665 6.416 55.5065 6.608C54.9465 6.8 54.4425 7.016 53.9945 7.256C53.5625 7.496 53.1385 7.712 52.7225 7.904C52.3065 8.096 51.8105 8.192 51.2345 8.192C50.7225 8.192 50.2905 8.064 49.9385 7.808C49.5865 7.552 49.2985 7.248 49.0745 6.896L47.7305 4.568ZM70.7263 26V1.112H75.3343C76.2623 1.112 76.8703 1.528 77.1583 2.36L77.5663 3.704C77.9823 3.272 78.4143 2.88 78.8623 2.528C79.3103 2.16 79.7903 1.848 80.3023 1.592C80.8303 1.32 81.3903 1.112 81.9823 0.967998C82.5903 0.807998 83.2543 0.727998 83.9743 0.727998C85.4783 0.727998 86.7183 1.12 87.6943 1.904C88.6863 2.672 89.4383 3.704 89.9503 5C90.3663 4.232 90.8703 3.576 91.4623 3.032C92.0703 2.488 92.7183 2.048 93.4063 1.712C94.1103 1.376 94.8463 1.128 95.6143 0.967998C96.3983 0.807998 97.1743 0.727998 97.9423 0.727998C99.3663 0.727998 100.63 0.943998 101.734 1.376C102.838 1.792 103.758 2.408 104.494 3.224C105.246 4.024 105.814 5.016 106.198 6.2C106.582 7.368 106.774 8.696 106.774 10.184V26H99.3343V10.184C99.3343 7.608 98.2303 6.32 96.0223 6.32C95.0143 6.32 94.1743 6.656 93.5023 7.328C92.8463 7.984 92.5183 8.936 92.5183 10.184V26H85.0783V10.184C85.0783 8.76 84.7983 7.76 84.2383 7.184C83.6783 6.608 82.8543 6.32 81.7663 6.32C81.0943 6.32 80.4543 6.472 79.8463 6.776C79.2543 7.08 78.6943 7.488 78.1663 8V26H70.7263ZM124.634 10.568C124.634 9.976 124.554 9.4 124.394 8.84C124.25 8.28 124.002 7.784 123.65 7.352C123.314 6.904 122.866 6.544 122.306 6.272C121.746 6 121.066 5.864 120.266 5.864C118.858 5.864 117.754 6.272 116.954 7.088C116.154 7.888 115.626 9.048 115.37 10.568H124.634ZM115.274 14.888C115.514 16.968 116.146 18.48 117.17 19.424C118.194 20.352 119.514 20.816 121.13 20.816C121.994 20.816 122.738 20.712 123.362 20.504C123.986 20.296 124.538 20.064 125.018 19.808C125.514 19.552 125.962 19.32 126.362 19.112C126.778 18.904 127.21 18.8 127.658 18.8C128.25 18.8 128.698 19.016 129.002 19.448L131.162 22.112C130.394 22.992 129.562 23.712 128.666 24.272C127.786 24.816 126.874 25.248 125.93 25.568C125.002 25.872 124.066 26.08 123.122 26.192C122.194 26.32 121.306 26.384 120.458 26.384C118.714 26.384 117.074 26.104 115.538 25.544C114.018 24.968 112.682 24.12 111.53 23C110.394 21.88 109.49 20.488 108.818 18.824C108.162 17.16 107.834 15.224 107.834 13.016C107.834 11.352 108.114 9.776 108.674 8.288C109.25 6.8 110.066 5.496 111.122 4.376C112.194 3.256 113.482 2.368 114.986 1.712C116.506 1.056 118.218 0.727998 120.122 0.727998C121.77 0.727998 123.274 0.983998 124.634 1.496C126.01 2.008 127.186 2.752 128.162 3.728C129.154 4.704 129.922 5.904 130.466 7.328C131.026 8.736 131.306 10.336 131.306 12.128C131.306 12.688 131.282 13.144 131.234 13.496C131.186 13.848 131.098 14.128 130.97 14.336C130.842 14.544 130.666 14.688 130.442 14.768C130.234 14.848 129.962 14.888 129.626 14.888H115.274ZM131.621 22.232C131.621 21.656 131.725 21.12 131.933 20.624C132.157 20.128 132.453 19.696 132.821 19.328C133.205 18.96 133.653 18.672 134.165 18.464C134.677 18.24 135.237 18.128 135.845 18.128C136.437 18.128 136.989 18.24 137.501 18.464C138.013 18.672 138.461 18.96 138.845 19.328C139.229 19.696 139.525 20.128 139.733 20.624C139.957 21.12 140.069 21.656 140.069 22.232C140.069 22.808 139.957 23.352 139.733 23.864C139.525 24.36 139.229 24.792 138.845 25.16C138.461 25.528 138.013 25.816 137.501 26.024C136.989 26.232 136.437 26.336 135.845 26.336C135.237 26.336 134.677 26.232 134.165 26.024C133.653 25.816 133.205 25.528 132.821 25.16C132.453 24.792 132.157 24.36 131.933 23.864C131.725 23.352 131.621 22.808 131.621 22.232Z" fill="#00B049"/>
</svg>
