<svg width="304" height="82" viewBox="0 0 304 82" fill="none" xmlns="http://www.w3.org/2000/svg">
    <path d="M98.5759 55.3734C98.5759 54.3868 98.4426 53.4268 98.1759 52.4934C97.9359 51.5601 97.5226 50.7334 96.9359 50.0134C96.3759 49.2668 95.6292 48.6668 94.6959 48.2134C93.7626 47.7601 92.6292 47.5334 91.2959 47.5334C88.9492 47.5334 87.1092 48.2134 85.7759 49.5734C84.4426 50.9068 83.5626 52.8401 83.1359 55.3734H98.5759ZM82.9759 62.5734C83.3759 66.0401 84.4292 68.5601 86.1359 70.1334C87.8426 71.6801 90.0426 72.4534 92.7359 72.4534C94.1759 72.4534 95.4159 72.2801 96.4559 71.9334C97.4959 71.5868 98.4159 71.2001 99.2159 70.7734C100.043 70.3468 100.789 69.9601 101.456 69.6134C102.149 69.2668 102.869 69.0934 103.616 69.0934C104.603 69.0934 105.349 69.4534 105.856 70.1734L109.456 74.6134C108.176 76.0801 106.789 77.2801 105.296 78.2134C103.829 79.1201 102.309 79.8401 100.736 80.3734C99.1892 80.8801 97.6292 81.2268 96.0559 81.4134C94.5092 81.6268 93.0292 81.7334 91.6159 81.7334C88.7092 81.7334 85.9759 81.2668 83.4159 80.3334C80.8826 79.3734 78.6559 77.9601 76.7359 76.0934C74.8426 74.2268 73.3359 71.9068 72.2159 69.1334C71.1226 66.3601 70.5759 63.1334 70.5759 59.4534C70.5759 56.6801 71.0426 54.0534 71.9759 51.5734C72.9359 49.0934 74.2959 46.9201 76.0559 45.0534C77.8426 43.1868 79.9892 41.7068 82.4959 40.6134C85.0292 39.5201 87.8826 38.9734 91.0559 38.9734C93.8026 38.9734 96.3092 39.4001 98.5759 40.2534C100.869 41.1068 102.829 42.3468 104.456 43.9734C106.109 45.6001 107.389 47.6001 108.296 49.9734C109.229 52.3201 109.696 54.9868 109.696 57.9734C109.696 58.9068 109.656 59.6668 109.576 60.2534C109.496 60.8401 109.349 61.3068 109.136 61.6534C108.923 62.0001 108.629 62.2401 108.256 62.3734C107.909 62.5068 107.456 62.5734 106.896 62.5734H82.9759ZM150.878 81.0934H138.958C138.078 81.0934 137.358 80.8801 136.798 80.4534C136.264 80.0268 135.838 79.5201 135.518 78.9334L128.118 66.2134C127.984 66.6668 127.824 67.0934 127.638 67.4934C127.451 67.8934 127.251 68.2668 127.038 68.6134L120.958 78.9334C120.584 79.4668 120.144 79.9601 119.638 80.4134C119.131 80.8668 118.478 81.0934 117.678 81.0934H106.638L120.558 59.6534L107.198 39.6134H119.118C119.998 39.6134 120.638 39.7334 121.038 39.9734C121.464 40.1868 121.838 40.5601 122.158 41.0934L129.558 53.3734C129.718 52.8934 129.918 52.4268 130.158 51.9734C130.398 51.4934 130.664 51.0134 130.958 50.5334L136.238 41.2934C136.611 40.7068 136.998 40.2801 137.398 40.0134C137.824 39.7468 138.344 39.6134 138.958 39.6134H150.318L136.958 59.0934L150.878 81.0934ZM172.113 64.2134C169.633 64.3201 167.593 64.5334 165.993 64.8534C164.393 65.1734 163.127 65.5734 162.193 66.0534C161.26 66.5334 160.607 67.0801 160.233 67.6934C159.887 68.3068 159.713 68.9734 159.713 69.6934C159.713 71.1068 160.1 72.1068 160.873 72.6934C161.647 73.2534 162.78 73.5334 164.273 73.5334C165.873 73.5334 167.273 73.2534 168.473 72.6934C169.673 72.1334 170.887 71.2268 172.113 69.9734V64.2134ZM149.793 45.3734C152.3 43.1601 155.073 41.5201 158.113 40.4534C161.18 39.3601 164.46 38.8134 167.953 38.8134C170.46 38.8134 172.713 39.2268 174.713 40.0534C176.74 40.8534 178.447 41.9868 179.833 43.4534C181.247 44.8934 182.327 46.6134 183.073 48.6134C183.82 50.6134 184.193 52.8001 184.193 55.1734V81.0934H178.513C177.34 81.0934 176.447 80.9334 175.833 80.6134C175.247 80.2934 174.753 79.6268 174.353 78.6134L173.473 76.3334C172.433 77.2134 171.433 77.9868 170.473 78.6534C169.513 79.3201 168.513 79.8934 167.473 80.3734C166.46 80.8268 165.367 81.1601 164.193 81.3734C163.047 81.6134 161.767 81.7334 160.353 81.7334C158.46 81.7334 156.74 81.4934 155.193 81.0134C153.647 80.5068 152.327 79.7734 151.233 78.8134C150.167 77.8534 149.34 76.6668 148.753 75.2534C148.167 73.8134 147.873 72.1601 147.873 70.2934C147.873 68.8001 148.247 67.2934 148.993 65.7734C149.74 64.2268 151.033 62.8268 152.873 61.5734C154.713 60.2934 157.193 59.2268 160.313 58.3734C163.433 57.5201 167.367 57.0401 172.113 56.9334V55.1734C172.113 52.7468 171.607 51.0001 170.593 49.9334C169.607 48.8401 168.193 48.2934 166.353 48.2934C164.887 48.2934 163.687 48.4534 162.753 48.7734C161.82 49.0934 160.98 49.4534 160.233 49.8534C159.513 50.2534 158.807 50.6134 158.113 50.9334C157.42 51.2534 156.593 51.4134 155.633 51.4134C154.78 51.4134 154.06 51.2001 153.473 50.7734C152.887 50.3468 152.407 49.8401 152.033 49.2534L149.793 45.3734ZM188.12 81.0934V39.6134H195.8C197.346 39.6134 198.36 40.3068 198.84 41.6934L199.52 43.9334C200.213 43.2134 200.933 42.5601 201.68 41.9734C202.426 41.3601 203.226 40.8401 204.08 40.4134C204.96 39.9601 205.893 39.6134 206.88 39.3734C207.893 39.1068 209 38.9734 210.2 38.9734C212.706 38.9734 214.773 39.6268 216.4 40.9334C218.053 42.2134 219.306 43.9334 220.16 46.0934C220.853 44.8134 221.693 43.7201 222.68 42.8134C223.693 41.9068 224.773 41.1734 225.92 40.6134C227.093 40.0534 228.32 39.6401 229.6 39.3734C230.906 39.1068 232.2 38.9734 233.48 38.9734C235.853 38.9734 237.96 39.3334 239.8 40.0534C241.64 40.7468 243.173 41.7734 244.4 43.1334C245.653 44.4668 246.6 46.1201 247.24 48.0934C247.88 50.0401 248.2 52.2534 248.2 54.7334V81.0934H235.8V54.7334C235.8 50.4401 233.96 48.2934 230.28 48.2934C228.6 48.2934 227.2 48.8534 226.08 49.9734C224.986 51.0668 224.44 52.6534 224.44 54.7334V81.0934H212.04V54.7334C212.04 52.3601 211.573 50.6934 210.64 49.7334C209.706 48.7734 208.333 48.2934 206.52 48.2934C205.4 48.2934 204.333 48.5468 203.32 49.0534C202.333 49.5601 201.4 50.2401 200.52 51.0934V81.0934H188.12ZM277.967 55.3734C277.967 54.3868 277.833 53.4268 277.567 52.4934C277.327 51.5601 276.913 50.7334 276.327 50.0134C275.767 49.2668 275.02 48.6668 274.087 48.2134C273.153 47.7601 272.02 47.5334 270.687 47.5334C268.34 47.5334 266.5 48.2134 265.167 49.5734C263.833 50.9068 262.953 52.8401 262.527 55.3734H277.967ZM262.367 62.5734C262.767 66.0401 263.82 68.5601 265.527 70.1334C267.233 71.6801 269.433 72.4534 272.127 72.4534C273.567 72.4534 274.807 72.2801 275.847 71.9334C276.887 71.5868 277.807 71.2001 278.607 70.7734C279.433 70.3468 280.18 69.9601 280.847 69.6134C281.54 69.2668 282.26 69.0934 283.007 69.0934C283.993 69.0934 284.74 69.4534 285.247 70.1734L288.847 74.6134C287.567 76.0801 286.18 77.2801 284.687 78.2134C283.22 79.1201 281.7 79.8401 280.127 80.3734C278.58 80.8801 277.02 81.2268 275.447 81.4134C273.9 81.6268 272.42 81.7334 271.007 81.7334C268.1 81.7334 265.367 81.2668 262.807 80.3334C260.273 79.3734 258.047 77.9601 256.127 76.0934C254.233 74.2268 252.727 71.9068 251.607 69.1334C250.513 66.3601 249.967 63.1334 249.967 59.4534C249.967 56.6801 250.433 54.0534 251.367 51.5734C252.327 49.0934 253.687 46.9201 255.447 45.0534C257.233 43.1868 259.38 41.7068 261.887 40.6134C264.42 39.5201 267.273 38.9734 270.447 38.9734C273.193 38.9734 275.7 39.4001 277.967 40.2534C280.26 41.1068 282.22 42.3468 283.847 43.9734C285.5 45.6001 286.78 47.6001 287.687 49.9734C288.62 52.3201 289.087 54.9868 289.087 57.9734C289.087 58.9068 289.047 59.6668 288.967 60.2534C288.887 60.8401 288.74 61.3068 288.527 61.6534C288.313 62.0001 288.02 62.2401 287.647 62.3734C287.3 62.5068 286.847 62.5734 286.287 62.5734H262.367ZM289.612 74.8134C289.612 73.8534 289.785 72.9601 290.132 72.1334C290.505 71.3068 290.998 70.5868 291.612 69.9734C292.252 69.3601 292.998 68.8801 293.852 68.5334C294.705 68.1601 295.638 67.9734 296.652 67.9734C297.638 67.9734 298.558 68.1601 299.412 68.5334C300.265 68.8801 301.012 69.3601 301.652 69.9734C302.292 70.5868 302.785 71.3068 303.132 72.1334C303.505 72.9601 303.692 73.8534 303.692 74.8134C303.692 75.7734 303.505 76.6801 303.132 77.5334C302.785 78.3601 302.292 79.0801 301.652 79.6934C301.012 80.3068 300.265 80.7868 299.412 81.1334C298.558 81.4801 297.638 81.6534 296.652 81.6534C295.638 81.6534 294.705 81.4801 293.852 81.1334C292.998 80.7868 292.252 80.3068 291.612 79.6934C290.998 79.0801 290.505 78.3601 290.132 77.5334C289.785 76.6801 289.612 75.7734 289.612 74.8134Z" fill="#00B049"/>
    <path d="M13.1223 14.6234C14.381 14.8581 15.4156 15.4874 16.2263 16.5114C17.037 17.5354 17.4423 18.7087 17.4423 20.0314C17.4423 21.2261 17.1436 22.2821 16.5463 23.1994C15.9703 24.0954 15.1276 24.7994 14.0183 25.3114C12.909 25.8234 11.597 26.0794 10.0823 26.0794H0.45031V3.74341H9.66631C11.181 3.74341 12.4823 3.98874 13.5703 4.47941C14.6796 4.97007 15.5116 5.65274 16.0663 6.52741C16.6423 7.40207 16.9303 8.39407 16.9303 9.50341C16.9303 10.8047 16.5783 11.8927 15.8743 12.7674C15.1916 13.6421 14.2743 14.2607 13.1223 14.6234ZM4.93031 12.9594H9.02631C10.093 12.9594 10.9143 12.7247 11.4903 12.2554C12.0663 11.7647 12.3543 11.0714 12.3543 10.1754C12.3543 9.27941 12.0663 8.58607 11.4903 8.09541C10.9143 7.60474 10.093 7.35941 9.02631 7.35941H4.93031V12.9594ZM9.44231 22.4314C10.5303 22.4314 11.373 22.1754 11.9703 21.6634C12.589 21.1514 12.8983 20.4261 12.8983 19.4874C12.8983 18.5274 12.5783 17.7807 11.9383 17.2474C11.2983 16.6927 10.4343 16.4154 9.34631 16.4154H4.93031V22.4314H9.44231ZM37.4928 16.8314C37.4928 17.4714 37.4501 18.0474 37.3648 18.5594H24.4048C24.5115 19.8394 24.9595 20.8421 25.7488 21.5674C26.5381 22.2927 27.5088 22.6554 28.6608 22.6554C30.3248 22.6554 31.5088 21.9407 32.2128 20.5114H37.0448C36.5328 22.2181 35.5515 23.6261 34.1008 24.7354C32.6501 25.8234 30.8688 26.3674 28.7568 26.3674C27.0501 26.3674 25.5141 25.9941 24.1488 25.2474C22.8048 24.4794 21.7488 23.4021 20.9808 22.0154C20.2341 20.6287 19.8608 19.0287 19.8608 17.2154C19.8608 15.3807 20.2341 13.7701 20.9808 12.3834C21.7275 10.9967 22.7728 9.93007 24.1168 9.18341C25.4608 8.43674 27.0075 8.06341 28.7568 8.06341C30.4421 8.06341 31.9461 8.42607 33.2688 9.15141C34.6128 9.87674 35.6475 10.9114 36.3728 12.2554C37.1195 13.5781 37.4928 15.1034 37.4928 16.8314ZM32.8528 15.5514C32.8315 14.3994 32.4155 13.4821 31.6048 12.7994C30.7941 12.0954 29.8021 11.7434 28.6288 11.7434C27.5195 11.7434 26.5808 12.0847 25.8128 12.7674C25.0661 13.4287 24.6075 14.3567 24.4368 15.5514H32.8528ZM62.7788 8.09541C64.9548 8.09541 66.7041 8.76741 68.0268 10.1114C69.3708 11.4341 70.0428 13.2901 70.0428 15.6794V26.0794H65.5628V16.2874C65.5628 14.9007 65.2108 13.8447 64.5068 13.1194C63.8028 12.3727 62.8428 11.9994 61.6268 11.9994C60.4108 11.9994 59.4401 12.3727 58.7148 13.1194C58.0108 13.8447 57.6588 14.9007 57.6588 16.2874V26.0794H53.1788V16.2874C53.1788 14.9007 52.8268 13.8447 52.1228 13.1194C51.4188 12.3727 50.4588 11.9994 49.2428 11.9994C48.0055 11.9994 47.0241 12.3727 46.2988 13.1194C45.5948 13.8447 45.2428 14.9007 45.2428 16.2874V26.0794H40.7628V8.35141H45.2428V10.4954C45.8188 9.74874 46.5548 9.16207 47.4508 8.7354C48.3681 8.30874 49.3708 8.09541 50.4588 8.09541C51.8455 8.09541 53.0828 8.39407 54.1708 8.99141C55.2588 9.56741 56.1015 10.3994 56.6988 11.4874C57.2748 10.4634 58.1068 9.64207 59.1948 9.02341C60.3041 8.40474 61.4988 8.09541 62.7788 8.09541ZM89.3111 21.9514L93.7911 8.35141H98.5591L91.9991 26.0794H86.5591L80.0311 8.35141H84.8311L89.3111 21.9514ZM103.347 6.23941C102.558 6.23941 101.897 5.99407 101.363 5.50341C100.851 4.99141 100.595 4.36207 100.595 3.61541C100.595 2.86874 100.851 2.25007 101.363 1.75941C101.897 1.24741 102.558 0.991405 103.347 0.991405C104.137 0.991405 104.787 1.24741 105.299 1.75941C105.833 2.25007 106.099 2.86874 106.099 3.61541C106.099 4.36207 105.833 4.99141 105.299 5.50341C104.787 5.99407 104.137 6.23941 103.347 6.23941ZM105.555 8.35141V26.0794H101.075V8.35141H105.555ZM119.806 8.09541C121.918 8.09541 123.624 8.76741 124.926 10.1114C126.227 11.4341 126.878 13.2901 126.878 15.6794V26.0794H122.398V16.2874C122.398 14.8794 122.046 13.8021 121.342 13.0554C120.638 12.2874 119.678 11.9034 118.462 11.9034C117.224 11.9034 116.243 12.2874 115.518 13.0554C114.814 13.8021 114.462 14.8794 114.462 16.2874V26.0794H109.982V8.35141H114.462V10.5594C115.059 9.79141 115.816 9.19407 116.734 8.76741C117.672 8.31941 118.696 8.09541 119.806 8.09541ZM129.986 17.1514C129.986 15.3594 130.338 13.7701 131.042 12.3834C131.767 10.9967 132.748 9.93007 133.986 9.18341C135.223 8.43674 136.599 8.06341 138.114 8.06341C139.266 8.06341 140.364 8.31941 141.41 8.83141C142.455 9.32207 143.287 9.98341 143.906 10.8154V2.39941H148.45V26.0794H143.906V23.4554C143.351 24.3301 142.572 25.0341 141.57 25.5674C140.567 26.1007 139.404 26.3674 138.082 26.3674C136.588 26.3674 135.223 25.9834 133.986 25.2154C132.748 24.4474 131.767 23.3701 131.042 21.9834C130.338 20.5754 129.986 18.9647 129.986 17.1514ZM143.938 17.2154C143.938 16.1274 143.724 15.1994 143.298 14.4314C142.871 13.6421 142.295 13.0447 141.57 12.6394C140.844 12.2127 140.066 11.9994 139.234 11.9994C138.402 11.9994 137.634 12.2021 136.93 12.6074C136.226 13.0127 135.65 13.6101 135.202 14.3994C134.775 15.1674 134.562 16.0847 134.562 17.1514C134.562 18.2181 134.775 19.1567 135.202 19.9674C135.65 20.7567 136.226 21.3647 136.93 21.7914C137.655 22.2181 138.423 22.4314 139.234 22.4314C140.066 22.4314 140.844 22.2287 141.57 21.8234C142.295 21.3967 142.871 20.7994 143.298 20.0314C143.724 19.2421 143.938 18.3034 143.938 17.2154ZM160.697 26.3674C158.991 26.3674 157.455 25.9941 156.089 25.2474C154.724 24.4794 153.647 23.4021 152.857 22.0154C152.089 20.6287 151.705 19.0287 151.705 17.2154C151.705 15.4021 152.1 13.8021 152.889 12.4154C153.7 11.0287 154.799 9.96207 156.185 9.21541C157.572 8.44741 159.119 8.06341 160.825 8.06341C162.532 8.06341 164.079 8.44741 165.465 9.21541C166.852 9.96207 167.94 11.0287 168.729 12.4154C169.54 13.8021 169.945 15.4021 169.945 17.2154C169.945 19.0287 169.529 20.6287 168.697 22.0154C167.887 23.4021 166.777 24.4794 165.369 25.2474C163.983 25.9941 162.425 26.3674 160.697 26.3674ZM160.697 22.4634C161.508 22.4634 162.265 22.2714 162.969 21.8874C163.695 21.4821 164.271 20.8847 164.697 20.0954C165.124 19.3061 165.337 18.3461 165.337 17.2154C165.337 15.5301 164.889 14.2394 163.993 13.3434C163.119 12.4261 162.041 11.9674 160.761 11.9674C159.481 11.9674 158.404 12.4261 157.529 13.3434C156.676 14.2394 156.249 15.5301 156.249 17.2154C156.249 18.9007 156.665 20.2021 157.497 21.1194C158.351 22.0154 159.417 22.4634 160.697 22.4634ZM179.705 17.1514C179.705 15.3594 180.057 13.7701 180.761 12.3834C181.486 10.9967 182.457 9.93007 183.673 9.18341C184.91 8.43674 186.286 8.06341 187.801 8.06341C189.123 8.06341 190.275 8.33007 191.257 8.86341C192.259 9.39674 193.059 10.0687 193.657 10.8794V8.35141H198.169V26.0794H193.657V23.4874C193.081 24.3194 192.281 25.0127 191.257 25.5674C190.254 26.1007 189.091 26.3674 187.769 26.3674C186.275 26.3674 184.91 25.9834 183.673 25.2154C182.457 24.4474 181.486 23.3701 180.761 21.9834C180.057 20.5754 179.705 18.9647 179.705 17.1514ZM193.657 17.2154C193.657 16.1274 193.443 15.1994 193.017 14.4314C192.59 13.6421 192.014 13.0447 191.289 12.6394C190.563 12.2127 189.785 11.9994 188.953 11.9994C188.121 11.9994 187.353 12.2021 186.649 12.6074C185.945 13.0127 185.369 13.6101 184.921 14.3994C184.494 15.1674 184.281 16.0847 184.281 17.1514C184.281 18.2181 184.494 19.1567 184.921 19.9674C185.369 20.7567 185.945 21.3647 186.649 21.7914C187.374 22.2181 188.142 22.4314 188.953 22.4314C189.785 22.4314 190.563 22.2287 191.289 21.8234C192.014 21.3967 192.59 20.7994 193.017 20.0314C193.443 19.2421 193.657 18.3034 193.657 17.2154ZM210.416 26.3674C208.709 26.3674 207.173 25.9941 205.808 25.2474C204.443 24.4794 203.365 23.4021 202.576 22.0154C201.808 20.6287 201.424 19.0287 201.424 17.2154C201.424 15.4021 201.819 13.8021 202.608 12.4154C203.419 11.0287 204.517 9.96207 205.904 9.21541C207.291 8.44741 208.837 8.06341 210.544 8.06341C212.251 8.06341 213.797 8.44741 215.184 9.21541C216.571 9.96207 217.659 11.0287 218.448 12.4154C219.259 13.8021 219.664 15.4021 219.664 17.2154C219.664 19.0287 219.248 20.6287 218.416 22.0154C217.605 23.4021 216.496 24.4794 215.088 25.2474C213.701 25.9941 212.144 26.3674 210.416 26.3674ZM210.416 22.4634C211.227 22.4634 211.984 22.2714 212.688 21.8874C213.413 21.4821 213.989 20.8847 214.416 20.0954C214.843 19.3061 215.056 18.3461 215.056 17.2154C215.056 15.5301 214.608 14.2394 213.712 13.3434C212.837 12.4261 211.76 11.9674 210.48 11.9674C209.2 11.9674 208.123 12.4261 207.248 13.3434C206.395 14.2394 205.968 15.5301 205.968 17.2154C205.968 18.9007 206.384 20.2021 207.216 21.1194C208.069 22.0154 209.136 22.4634 210.416 22.4634Z" fill="#3E3D56"/>
</svg>
